<svg xmlns="http://www.w3.org/2000/svg" width="1200" height="630" viewBox="0 0 1200 630">
  <defs>
    <linearGradient id="bg" x1="0%" y1="0%" x2="100%" y2="100%">
      <stop offset="0%" style="stop-color:#0a0a0f"/>
      <stop offset="100%" style="stop-color:#12121a"/>
    </linearGradient>
    <linearGradient id="accent" x1="0%" y1="0%" x2="100%" y2="0%">
      <stop offset="0%" style="stop-color:#00ff88"/>
      <stop offset="50%" style="stop-color:#00d4ff"/>
      <stop offset="100%" style="stop-color:#8b5cf6"/>
    </linearGradient>
  </defs>
  <!-- Background -->
  <rect width="1200" height="630" fill="url(#bg)"/>
  <!-- Grid pattern -->
  <g opacity="0.05" stroke="#00ff88" stroke-width="0.5">
    <line x1="0" y1="0" x2="0" y2="630" /><line x1="50" y1="0" x2="50" y2="630" />
    <line x1="100" y1="0" x2="100" y2="630" /><line x1="150" y1="0" x2="150" y2="630" />
    <line x1="200" y1="0" x2="200" y2="630" /><line x1="250" y1="0" x2="250" y2="630" />
    <line x1="300" y1="0" x2="300" y2="630" /><line x1="350" y1="0" x2="350" y2="630" />
    <line x1="400" y1="0" x2="400" y2="630" /><line x1="450" y1="0" x2="450" y2="630" />
    <line x1="500" y1="0" x2="500" y2="630" /><line x1="550" y1="0" x2="550" y2="630" />
    <line x1="600" y1="0" x2="600" y2="630" /><line x1="650" y1="0" x2="650" y2="630" />
    <line x1="700" y1="0" x2="700" y2="630" /><line x1="750" y1="0" x2="750" y2="630" />
    <line x1="800" y1="0" x2="800" y2="630" /><line x1="850" y1="0" x2="850" y2="630" />
    <line x1="900" y1="0" x2="900" y2="630" /><line x1="950" y1="0" x2="950" y2="630" />
    <line x1="1000" y1="0" x2="1000" y2="630" /><line x1="1050" y1="0" x2="1050" y2="630" />
    <line x1="1100" y1="0" x2="1100" y2="630" /><line x1="1150" y1="0" x2="1150" y2="630" />
    <line x1="1200" y1="0" x2="1200" y2="630" />
    <line x1="0" y1="0" x2="1200" y2="0" /><line x1="0" y1="50" x2="1200" y2="50" />
    <line x1="0" y1="100" x2="1200" y2="100" /><line x1="0" y1="150" x2="1200" y2="150" />
    <line x1="0" y1="200" x2="1200" y2="200" /><line x1="0" y1="250" x2="1200" y2="250" />
    <line x1="0" y1="300" x2="1200" y2="300" /><line x1="0" y1="350" x2="1200" y2="350" />
    <line x1="0" y1="400" x2="1200" y2="400" /><line x1="0" y1="450" x2="1200" y2="450" />
    <line x1="0" y1="500" x2="1200" y2="500" /><line x1="0" y1="550" x2="1200" y2="550" />
    <line x1="0" y1="600" x2="1200" y2="600" />
  </g>
  <!-- Glow orbs -->
  <circle cx="900" cy="200" r="200" fill="#00ff88" opacity="0.04"/>
  <circle cx="300" cy="450" r="150" fill="#00d4ff" opacity="0.04"/>
  <circle cx="1050" cy="500" r="120" fill="#8b5cf6" opacity="0.04"/>
  <!-- Border -->
  <rect x="40" y="40" width="1120" height="550" rx="24" fill="none" stroke="#2a2a3a" stroke-width="1"/>
  <!-- Accent bar top -->
  <rect x="40" y="40" width="1120" height="4" rx="2" fill="url(#accent)"/>
  <!-- Content -->
  <text x="80" y="160" fill="#00ff88" font-family="monospace" font-size="18" font-weight="500">&gt; prasanta.portfolio</text>
  <text x="80" y="250" fill="#ffffff" font-family="system-ui, sans-serif" font-size="64" font-weight="700">Prasanta Ray</text>
  <text x="80" y="330" fill="#00ff88" font-family="system-ui, sans-serif" font-size="28" font-weight="600">Founder &amp; CEO — Code Lith Labs</text>
  <text x="80" y="380" fill="#9CA3AF" font-family="system-ui, sans-serif" font-size="22">Backend Researcher · Co-Founder @ Stackveil · CSE @ CIT Kokrajhar</text>
  <!-- Tech tags -->
  <rect x="80" y="420" width="60" height="32" rx="8" fill="#1a1a26" stroke="#2a2a3a"/>
  <text x="110" y="441" fill="#00ff88" font-family="monospace" font-size="14" text-anchor="middle">C++</text>
  <rect x="152" y="420" width="82" height="32" rx="8" fill="#1a1a26" stroke="#2a2a3a"/>
  <text x="193" y="441" fill="#00d4ff" font-family="monospace" font-size="14" text-anchor="middle">Node.js</text>
  <rect x="246" y="420" width="100" height="32" rx="8" fill="#1a1a26" stroke="#2a2a3a"/>
  <text x="296" y="441" fill="#8b5cf6" font-family="monospace" font-size="14" text-anchor="middle">TypeScript</text>
  <rect x="358" y="420" width="72" height="32" rx="8" fill="#1a1a26" stroke="#2a2a3a"/>
  <text x="394" y="441" fill="#f59e0b" font-family="monospace" font-size="14" text-anchor="middle">React</text>
  <rect x="442" y="420" width="80" height="32" rx="8" fill="#1a1a26" stroke="#2a2a3a"/>
  <text x="482" y="441" fill="#00ff88" font-family="monospace" font-size="14" text-anchor="middle">Next.js</text>
  <!-- Domain -->
  <text x="80" y="545" fill="#6B7280" font-family="monospace" font-size="16">prasanta.codelithlabs.in</text>
  <!-- Decorative corner dot -->
  <circle cx="1100" cy="100" r="6" fill="#00ff88" opacity="0.6"/>
  <circle cx="1100" cy="120" r="4" fill="#00d4ff" opacity="0.4"/>
  <circle cx="1100" cy="138" r="3" fill="#8b5cf6" opacity="0.3"/>
</svg>
